:version 1.10
:name ASF
:units
  mass 1
  length 1
  angle deg
:documentation
  ASF file generated by Kaydara
:root
  axis xyz
  order  tx ty tz rx ry rz
  position 0 0 0
  orientation 0 0 0
:bonedata
  begin
    id 1
    name LeftUpLegDummy
    direction 1 -2.30186e-007 -8.31532e-007
    length 2.93387
    axis 0 0 0 xyz
  end
  begin
    id 2
    name LeftUpLeg
    direction -1.82929e-007 -1 -1.48925e-009
    length 17.3336
    axis -3.48766 0.00143442 -0.000521554 xyz
    dof rx ry rz
  end
  begin
    id 3
    name LeftLeg
    direction -1.82929e-007 -1 -5.23717e-011
    length 14.9995
    axis 3.68178 -0.00654042 -0.000282425 xyz
    dof rx ry rz
  end
  begin
    id 4
    name LeftFoot
    direction 8.31532e-007 -4.54534e-011 1
    length 6.74421
    axis 1.87234e-006 4.66016e-005 -5.96866e-006 xyz
    dof rx ry rz
  end
  begin
    id 5
    name LeftToes
    direction 0.00818058 -0.00485161 0.999955
    length 3.85048
    axis 1.06247e-005 4.65869e-005 -5.96999e-006 xyz
    dof rx ry rz
  end
  begin
    id 6
    name SpineDummy
    direction -5.8607e-008 0.943407 -0.331637
    length 5.93572
    axis 0 0 0 xyz
  end
  begin
    id 7
    name Spine
    direction -1.04988e-007 0.999988 0.00495137
    length 10.1015
    axis -0.001389 0.000121417 6.61666e-006 xyz
    dof rx ry rz
  end
  begin
    id 8
    name Spine1
    direction 0 0 0
    length 0
    axis -0.001389 0.00012144 6.56766e-006 xyz
    dof rx ry rz
  end
  begin
    id 9
    name RightShoulderDummy
    direction -0.98348 0.17941 -0.0240696
    length 3.59882
    axis -0.001389 0.00012144 6.56766e-006 xyz
  end
  begin
    id 10
    name RightShoulder
    direction -0.978693 0.204882 0.0135597
    length 2.70001
    axis 0.215806 0.000203631 -0.00679732 xyz
    dof rx ry rz
  end
  begin
    id 11
    name RightArm
    direction -1 3.85509e-006 8.31394e-007
    length 10.2459
    axis -23.2009 -0.134239 -0.964098 xyz
    dof rx ry rz
  end
  begin
    id 12
    name RightForeArm
    direction -1 3.85569e-006 8.3129e-007
    length 8.16799
    axis -9.92322 0.0658061 0.17887 xyz
    dof rx ry rz
  end
  begin
    id 13
    name RightHand
    direction -0.992843 -0.0414604 0.112003
    length 5.28593
    axis -0.00960638 0.00330669 -0.185225 xyz
    dof rx ry rz
  end
  begin
    id 14
    name LeftShoulder1Dummy
    direction 0.983523 0.179172 -0.0240748
    length 3.59866
    axis -0.001389 0.00012144 6.56766e-006 xyz
  end
  begin
    id 15
    name LeftShoulder1
    direction 0.978627 0.205195 0.0135605
    length 2.70019
    axis -0.001389 0.00012144 6.57583e-006 xyz
    dof rx ry rz
  end
  begin
    id 16
    name LeftArm
    direction 1 3.51895e-006 -8.60188e-007
    length 10.2459
    axis -23.1894 0.134785 0.967513 xyz
    dof rx ry rz
  end
  begin
    id 17
    name LeftForeArm
    direction 1 3.51921e-006 -7.32029e-007
    length 8.16799
    axis -9.91835 -0.0656957 -0.177789 xyz
    dof rx ry rz
  end
  begin
    id 18
    name LeftHand
    direction 0.992938 -0.0411636 0.11126
    length 5.32135
    axis -0.00960237 -0.00340661 0.185177 xyz
    dof rx ry rz
  end
  begin
    id 19
    name HEadDummy
    direction 1.01974e-006 0.999861 -0.016675
    length 2.99946
    axis -0.001389 0.00012144 6.56766e-006 xyz
  end
  begin
    id 20
    name HEad
    direction -0.0222689 0.980941 0.193023
    length 5.12695
    axis -0.001389 0.00012144 6.56766e-006 xyz
    dof rx ry rz
  end
  begin
    id 21
    name RightUpLegDummy
    direction -1 2.30186e-007 8.31532e-007
    length 2.93387
    axis 0 0 0 xyz
  end
  begin
    id 22
    name RightUpLeg
    direction -1.82966e-007 -1 1.56832e-007
    length 17.3336
    axis -3.4909 -0.000906625 0.00028951 xyz
    dof rx ry rz
  end
  begin
    id 23
    name RightLeg
    direction -1.82786e-007 -1 -1.80317e-007
    length 14.9995
    axis 3.68513 0.0193739 -0.131021 xyz
    dof rx ry rz
  end
  begin
    id 24
    name RightFoot
    direction 8.31721e-007 -4.63324e-011 1
    length 6.74421
    axis 4.81691e-005 -0.120479 -0.188785 xyz
    dof rx ry rz
  end
  begin
    id 25
    name RightToes
    direction 0.00124746 -0.014064 0.9999
    length 3.85082
    axis 0.000481921 0.542163 -0.142575 xyz
    dof rx ry rz
  end
:hierarchy
  begin
    root LeftUpLegDummy SpineDummy RightUpLegDummy
    LeftUpLegDummy LeftUpLeg
    LeftUpLeg LeftLeg
    LeftLeg LeftFoot
    LeftFoot LeftToes
    SpineDummy Spine
    Spine Spine1
    Spine1 RightShoulderDummy LeftShoulder1Dummy HEadDummy
    RightShoulderDummy RightShoulder
    RightShoulder RightArm
    RightArm RightForeArm
    RightForeArm RightHand
    LeftShoulder1Dummy LeftShoulder1
    LeftShoulder1 LeftArm
    LeftArm LeftForeArm
    LeftForeArm LeftHand
    HEadDummy HEad
    RightUpLegDummy RightUpLeg
    RightUpLeg RightLeg
    RightLeg RightFoot
    RightFoot RightToes
  end

:SAMPLES-PER-SECOND 30
:FULLY-SPECIFIED
:DEGREES
313
root  0.0317015 34.6358 30.0812 7.40391 -9.15268 -1.36662
LeftUpLeg  -6.24748 11.9796 6.53518
LeftLeg  6.88916 14.3256 0.793615
LeftFoot  5.79177 -0.0609831 1.42396
LeftToes  -21.5562 2.60077e-006 -1.42232e-007
Spine  1.71185 -1.51886 -1.62342
Spine1  3.04256 -3.07957 -3.31932
RightShoulder  0.0553191 8.08665 3.19347
RightArm  -38.0272 16.9291 70.7619
RightForeArm  11.5035 43.7147 9.71257
RightHand  0.683631 -7.03209 -10.7116
LeftShoulder1  0.0502548 -6.6564 -3.55079
LeftArm  -11.726 -46.5934 -77.0973
LeftForeArm  15.0624 -48.214 -11.393
LeftHand  0.230424 3.08025 8.16598
HEad  -6.67412 -6.83095 -1.90581
RightUpLeg  -14.8879 -12.5961 0.231143
RightLeg  8.25521 16.8859 1.33715
RightFoot  8.78842 -0.173124 2.62997
RightToes  -29.9236 -0.143338 -0.251434
314
root  0.0970427 34.6289 30.0741 7.32411 -8.26733 -1.3034
LeftUpLeg  -6.43843 11.8185 6.40929
LeftLeg  6.97308 13.599 0.77389
LeftFoot  5.68056 -0.0545654 1.31866
LeftToes  -21.5094 2.60077e-006 -1.42232e-007
Spine  1.70036 -1.29213 -1.74949
Spine1  3.0262 -2.63441 -3.54675
RightShoulder  0.053246 8.04049 3.42993
RightArm  -39.0793 16.2213 70.0124
RightForeArm  11.3341 44.144 9.86121
RightHand  0.709923 -7.19068 -10.8825
LeftShoulder1  0.0520132 -6.40515 -4.37655
LeftArm  -9.72226 -38.7862 -75.4517
LeftForeArm  17.4509 -55.8316 -15.096
LeftHand  0.190096 3.55327 5.7416
HEad  -6.74598 -8.2546 -1.30245
RightUpLeg  -14.7449 -12.734 -0.0196739
RightLeg  8.24091 16.2128 1.28114
RightFoot  8.75324 -0.162908 2.5068
RightToes  -30.3682 -0.146465 -0.254517
315
root  0.176917 34.6201 30.0693 7.2399 -7.34123 -1.27752
LeftUpLeg  -6.62695 11.533 6.29217
LeftLeg  7.08326 12.9634 0.763103
LeftFoot  5.51819 -0.0485075 1.21451
LeftToes  -21.4978 2.60077e-006 -1.42232e-007
Spine  1.75551 -1.10476 -1.91715
Spine1  3.14116 -2.26225 -3.85924
RightShoulder  0.0513986 7.9126 3.77825
RightArm  -40.0107 15.71 69.315
RightForeArm  10.8902 44.5497 10.0034
RightHand  0.731983 -7.2871 -11.077
LeftShoulder1  0.0541948 -5.8069 -5.22882
LeftArm  -8.54244 -31.4433 -74.3526
LeftForeArm  20.9579 -60.714 -18.3938
LeftHand  0.0776127 2.67267 2.94853
HEad  -7.35084 -9.50928 -0.500737
RightUpLeg  -14.559 -12.6224 -0.285792
RightLeg  8.19032 15.1785 1.18787
RightFoot  8.7441 -0.149681 2.33335
RightToes  -30.8854 -0.150065 -0.25839
316
root  0.270077 34.6125 30.0655 7.11695 -6.41786 -1.24794
LeftUpLeg  -6.7862 11.1868 6.15494
LeftLeg  7.21215 12.3868 0.757399
LeftFoot  5.33336 -0.0430857 1.11556
LeftToes  -21.3056 2.60077e-006 -1.42232e-007
Spine  1.75032 -0.829121 -2.07712
Spine1  3.12694 -1.71102 -4.15825
RightShoulder  0.0494865 8.03044 4.0122
RightArm  -41.3963 14.6569 68.4113
RightForeArm  10.5392 45.0121 10.1683
RightHand  0.756362 -7.51049 -11.1056
LeftShoulder1  0.0572118 -4.95183 -6.04252
LeftArm  -6.58998 -24.2907 -73.4615
LeftForeArm  22.9404 -63.0055 -20.3406
LeftHand  0.0566472 2.82875 1.91933
HEad  -7.71315 -10.9383 0.271093
RightUpLeg  -14.3397 -12.3959 -0.609062
RightLeg  8.16814 14.078 1.09794
RightFoot  8.75724 -0.136318 2.15753
RightToes  -31.5102 -0.154181 -0.262324
317
root  0.382222 34.6058 30.0733 7.02821 -5.4404 -1.21438
LeftUpLeg  -7.00055 10.8858 5.97123
LeftLeg  7.40642 11.7266 0.757191
LeftFoot  5.08922 -0.0368994 0.999756
LeftToes  -21.0919 2.60077e-006 -1.42232e-007
Spine  1.73351 -0.544473 -2.27887
Spine1  3.09486 -1.15358 -4.52284
RightShoulder  0.0475144 8.07623 4.345
RightArm  -42.8721 13.5289 67.5095
RightForeArm  10.0108 45.3308 10.2831
RightHand  0.770129 -7.58766 -11.1948
LeftShoulder1  0.0621799 -4.72658 -6.77554
LeftArm  -4.85401 -17.1826 -71.5367
LeftForeArm  23.7907 -63.6104 -20.9115
LeftHand  0.0666404 3.52234 1.79358
HEad  -7.92356 -12.4634 0.99133
RightUpLeg  -14.15 -12.4962 -0.921749
RightLeg  8.19052 13.2097 1.03647
RightFoot  8.7364 -0.124855 2.01177
RightToes  -32.0039 -0.157961 -0.26565
318
root  0.505813 34.597 30.0861 6.97599 -4.49202 -1.16622
LeftUpLeg  -7.23537 10.6609 5.74973
LeftLeg  7.60402 11.0127 0.74952
LeftFoot  4.82648 -0.0310306 0.883675
LeftToes  -20.9147 2.60077e-006 -1.42232e-007
Spine  1.71601 -0.262785 -2.46914
Spine1  3.06984 -0.597763 -4.86379
RightShoulder  0.0452369 7.99164 4.57145
RightArm  -44.1522 12.4526 66.7329
RightForeArm  9.49949 45.7101 10.4216
RightHand  0.787747 -7.68971 -11.3013
LeftShoulder1  0.0655834 -4.35227 -7.42878
LeftArm  -3.25672 -10.9125 -69.7975
LeftForeArm  23.7997 -61.5983 -19.1106
LeftHand  0.064013 3.66078 1.62986
HEad  -8.14534 -13.9526 1.63553
RightUpLeg  -13.9459 -12.5392 -1.26938
RightLeg  8.12922 12.3312 0.955369
RightFoot  8.71653 -0.113709 1.86745
RightToes  -32.3195 -0.160215 -0.268776
319
root  0.642694 34.5881 30.1005 6.90317 -3.58585 -1.07218
LeftUpLeg  -7.46638 10.4858 5.46108
LeftLeg  7.86842 10.2749 0.747173
LeftFoot  4.53997 -0.0256472 0.76966
LeftToes  -20.7161 2.60077e-006 -1.42232e-007
Spine  1.66249 -0.00762446 -2.62433
Spine1  2.97128 -0.0904391 -5.14174
RightShoulder  0.0419944 8.12789 4.64719
RightArm  -45.5016 11.2282 65.986
RightForeArm  9.16407 46.142 10.5821
RightHand  0.790002 -7.73607 -11.2647
LeftShoulder1  0.0683717 -3.93689 -8.25913
LeftArm  -1.9432 -5.3865 -68.0118
LeftForeArm  24.5117 -56.9616 -15.7822
LeftHand  0.0533658 3.56265 1.34323
HEad  -8.0551 -15.2403 1.92276
RightUpLeg  -13.7523 -12.6099 -1.68639
RightLeg  8.14192 11.5007 0.894388
RightFoot  8.6997 -0.103431 1.73489
RightToes  -32.9597 -0.164336 -0.272001
320
root  0.80745 34.5756 30.1127 6.7682 -2.6104 -0.930046
LeftUpLeg  -7.71385 10.0293 5.0832
LeftLeg  8.29496 9.75122 0.782036
LeftFoot  4.13251 -0.020889 0.659628
LeftToes  -20.3086 2.60077e-006 -1.42232e-007
Spine  1.62925 0.200831 -2.81849
Spine1  2.90544 0.332913 -5.50646
RightShoulder  0.0394767 8.11495 4.78585
RightArm  -46.7759 10.2036 65.4699
RightForeArm  8.88076 46.3432 10.6575
RightHand  0.790826 -7.72518 -11.2931
LeftShoulder1  0.0703936 -3.81018 -9.20846
LeftArm  -1.87553 -0.444645 -66.1826
LeftForeArm  24.6505 -50.3469 -12.3075
LeftHand  0.0391379 3.99105 0.751992
HEad  -7.93734 -16.342 2.15473
RightUpLeg  -13.5771 -12.8933 -2.18951
RightLeg  8.34475 10.7983 0.878612
RightFoot  8.62236 -0.0938976 1.6145
RightToes  -33.528 -0.168955 -0.275723
321
root  0.973968 34.5609 30.1354 6.67917 -2.06651 -0.884246
LeftUpLeg  -7.86511 10.1468 4.79049
LeftLeg  8.64964 9.05845 0.783081
LeftFoot  3.6875 -0.016135 0.543664
LeftToes  -20.0075 2.60077e-006 -1.42232e-007
Spine  1.57882 0.549817 -2.98618
Spine1  2.81089 1.05446 -5.83215
RightShoulder  0.0371661 8.14052 4.76703
RightArm  -47.9672 9.02159 65.064
RightForeArm  8.50798 46.8727 10.8595
RightHand  0.816297 -7.88168 -11.4282
LeftShoulder1  0.0733868 -3.72382 -9.89206
LeftArm  -3.73665 3.55206 -65.3321
LeftForeArm  26.168 -40.6814 -8.72069
LeftHand  0.0678164 4.11581 1.51464
HEad  -7.93243 -17.2804 2.39642
RightUpLeg  -13.397 -12.4066 -2.63562
RightLeg  8.39337 9.74544 0.802042
RightFoot  8.65664 -0.0822053 1.46351
RightToes  -34.1068 -0.173199 -0.279543
322
root  1.14643 34.536 30.1416 6.6079 -1.40747 -0.854953
LeftUpLeg  -8.22892 9.96572 4.5038
LeftLeg  9.35585 8.53404 0.843647
LeftFoot  3.07635 -0.0112716 0.419747
LeftToes  -19.6373 2.60077e-006 -1.42232e-007
Spine  1.54732 0.831511 -3.10098
Spine1  2.75274 1.60195 -6.02706
RightShoulder  0.0348788 8.21349 4.67048
RightArm  -49.1824 7.82268 64.7293
RightForeArm  8.24273 47.4473 11.0834
RightHand  0.846937 -7.99951 -11.6884
LeftShoulder1  0.0803671 -3.67729 -10.5913
LeftArm  -7.10598 6.05812 -64.7543
LeftForeArm  28.5533 -28.3195 -5.44457
LeftHand  0.136354 4.53658 3.06675
HEad  -7.83836 -18.1524 2.46856
RightUpLeg  -13.2822 -11.6934 -3.08555
RightLeg  8.53885 8.3268 0.707374
RightFoot  8.66116 -0.0659989 1.24897
RightToes  -34.6749 -0.177065 -0.283109
323
root  1.33583 34.4421 30.1663 6.54536 -0.835418 -0.771684
LeftUpLeg  -9.2674 9.77112 4.13837
LeftLeg  11.6361 8.10024 1.12658
LeftFoot  1.6375 -0.00256662 0.17959
LeftToes  -19.2435 2.60077e-006 -1.42232e-007
Spine  1.634 0.885312 -3.32154
Spine1  2.88992 1.56957 -6.20423
RightShoulder  0.0326496 8.32358 4.76005
RightArm  -50.2977 7.09748 64.5472
RightForeArm  7.95783 48.0211 11.3122
RightHand  0.8606 -8.04541 -11.8119
LeftShoulder1  0.142445 -4.03621 -11.9994
LeftArm  -12.6254 9.40386 -62.6742
LeftForeArm  29.5862 -21.7048 -4.01605
LeftHand  0.245608 6.05049 4.26992
HEad  -7.85892 -18.866 2.51274
RightUpLeg  -13.925 -11.0191 -3.6219
RightLeg  10.3483 7.03845 0.822474
RightFoot  7.78272 -0.0394045 0.95675
RightToes  -35.1025 -0.180589 -0.285819
324
root  1.52779 34.3714 30.1758 6.36422 -0.219597 -0.651414
LeftUpLeg  -9.90534 9.45773 3.74285
LeftLeg  13.2423 7.74157 1.29819
LeftFoot  0.570314 -0.000186012 0.0373658
LeftToes  -18.766 2.60077e-006 -1.42232e-007
Spine  1.66436 1.12621 -3.54485
Spine1  2.93489 2.11059 -6.60069
RightShoulder  0.03051 8.35731 4.76691
RightArm  -51.4313 6.09727 64.4007
RightForeArm  7.57967 48.5749 11.5379
RightHand  0.882583 -8.20545 -11.8783
LeftShoulder1  0.165733 -3.91633 -12.8147
LeftArm  -19.9708 12.3855 -61.0713
LeftForeArm  31.2254 -16.8219 -3.04794
LeftHand  0.411564 7.30638 6.06368
HEad  -8.09242 -19.5504 2.69802
RightUpLeg  -14.2229 -10.5318 -4.20198
RightLeg  11.6404 5.91856 0.827493
RightFoot  7.19494 -0.0245341 0.774935
RightToes  -35.4865 -0.183469 -0.288782
325
root  1.71209 34.335 30.1722 6.20971 0.378167 -0.540345
LeftUpLeg  -10.2431 9.41432 3.35349
LeftLeg  14.0867 7.15409 1.3084
LeftFoot  -0.0872723 -2.11021e-005 -0.0277158
LeftToes  -18.2255 2.60077e-006 -1.42232e-007
Spine  1.59459 1.49723 -3.6955
Spine1  2.80051 2.99368 -6.98704
RightShoulder  0.0282561 8.52841 4.5628
RightArm  -52.812 4.63906 64.2672
RightForeArm  7.32483 49.1992 11.7989
RightHand  0.902427 -8.36078 -11.9201
LeftShoulder1  0.155277 -3.51065 -12.7303
LeftArm  -27.4573 14.4208 -60.0339
LeftForeArm  35.294 -11.8572 -2.11372
LeftHand  0.546285 7.33588 8.1285
HEad  -8.17035 -20.331 2.79586
RightUpLeg  -14.1924 -10.1878 -4.72783
RightLeg  12.1204 4.96397 0.736834
RightFoot  7.06117 -0.0164029 0.67532
RightToes  -35.9439 -0.187331 -0.291789
